<svg width="375" height="605" viewBox="0 0 375 605" fill="none" xmlns="http://www.w3.org/2000/svg">
<path d="M308.55 341.7L280.499 321.3C270.299 313.651 260.1 303.45 260.1 285.6C260.1 267.75 272.85 252.45 285.6 244.8C318.75 219.3 351.9 191.25 351.9 135.15C351.9 81.6 318.75 51 300.9 35.7H344.25L374.85 0H216.75C104.55 0 48.45 71.4 48.45 147.9C48.45 206.55 94.35 270.3 175.95 270.3H196.35C193.8 277.95 186.15 290.7 186.15 303.45C186.15 328.95 196.35 339.15 209.1 354.45C173.4 357 107.1 364.65 58.65 395.25C12.75 423.3 0 461.55 0 489.6C0 548.25 53.55 604.35 168.3 604.35C306 604.35 372.301 527.85 372.301 453.901C372.3 400.35 344.25 372.3 308.55 341.7ZM114.75 109.65C114.75 53.55 147.9 28.05 183.6 28.05C249.9 28.05 285.6 117.3 285.6 168.3C285.6 234.6 232.05 247.35 211.65 247.35C147.9 247.35 114.75 168.3 114.75 109.65ZM206.549 568.65C122.399 568.65 68.849 530.4 68.849 474.299C68.849 418.199 119.849 400.349 135.149 392.699C168.299 382.499 211.649 379.949 219.299 379.949C226.949 379.949 232.049 379.949 237.149 379.949C298.349 423.299 323.849 441.149 323.849 481.949C323.849 530.4 275.4 568.65 206.549 568.65Z" fill="white"/>
</svg>
